<?xml version="1.0" encoding="utf-8"?>
<!-- Generator: Adobe Illustrator 26.5.0, SVG Export Plug-In . SVG Version: 6.00 Build 0)  -->
<svg version="1.1" id="Ebene_1" xmlns="http://www.w3.org/2000/svg" xmlns:xlink="http://www.w3.org/1999/xlink" x="0px" y="0px"
	 viewBox="0 0 210 67.2" style="enable-background:new 0 0 210 67.2;" xml:space="preserve">
<style type="text/css">
	.st0{fill:#004389;}
</style>
<g id="a">
</g>
<g id="b">
	<g id="c">
		<path class="st0" d="M0.5,5.7c3,0.3,6.1,0.6,9.2,0.8v2.2c12.3,0.8,24.5,0.8,36.8,0V6.5c3.1-0.2,6.1-0.5,9.2-0.8
			c0.3,0,0.5-0.3,0.5-0.6V4.5C56.2,4.2,56,4,55.7,4c-3.2-0.5-4.9-0.7-8.1-1.3c-0.6-0.1-1.1-0.6-1.1-1.2V0C34.2,0.8,22,0.8,9.7,0
			c0,0.6,0,0.8,0,1.4c0,0.6-0.4,1.1-1.1,1.2C5.4,3.2,3.8,3.5,0.5,4C0.2,4,0,4.2,0,4.5v0.5C0,5.4,0.2,5.6,0.5,5.7"/>
		<path class="st0" d="M0.5,20.8c3,0.3,6.1,0.6,9.2,0.8v2.2c12.3,0.8,24.5,0.8,36.8,0v-2.2c3.1-0.2,6.1-0.5,9.2-0.8
			c0.3,0,0.5-0.3,0.5-0.6v-0.5c0-0.3-0.2-0.5-0.5-0.6c-3.2-0.5-4.9-0.7-8.1-1.3c-0.6-0.1-1.1-0.6-1.1-1.2v-1.4
			c-12.3,0.8-24.5,0.8-36.8,0v1.4c0,0.6-0.4,1.1-1.1,1.2c-3.3,0.6-4.9,0.9-8.1,1.3c-0.3,0-0.5,0.2-0.5,0.6v0.5
			C0,20.5,0.2,20.7,0.5,20.8"/>
		<path class="st0" d="M0.5,35.9c3,0.3,6.1,0.6,9.2,0.8v2.2c12.3,0.8,24.5,0.8,36.8,0v-2.2c3.1-0.2,6.1-0.5,9.2-0.8
			c0.3,0,0.5-0.3,0.5-0.6v-0.5c0-0.3-0.2-0.5-0.5-0.6c-3.2-0.5-4.9-0.7-8.1-1.3c-0.6-0.1-1.1-0.6-1.1-1.2v-1.4
			C34.2,31,22,31,9.7,30.3v1.4c0,0.6-0.4,1.1-1.1,1.2c-3.3,0.6-4.9,0.9-8.1,1.3c-0.3,0-0.5,0.2-0.5,0.6v0.5
			C0,35.6,0.2,35.9,0.5,35.9"/>
		<path class="st0" d="M55.7,49.3c-3.2-0.5-4.9-0.7-8.1-1.3c-0.6-0.1-1.1-0.6-1.1-1.2v-1.4c-12.3,0.8-24.5,0.8-36.8,0v1.4
			c0,0.6-0.4,1.1-1.1,1.2c-3.3,0.6-4.9,0.9-8.1,1.3C0.2,49.4,0,49.6,0,49.9v0.5C0,50.7,0.2,51,0.6,51c3,0.3,6.1,0.6,9.2,0.8V54
			c12.3,0.8,24.5,0.8,36.8,0v-2.2c3.1-0.2,6.1-0.5,9.2-0.8c0.3,0,0.5-0.3,0.5-0.6v-0.5C56.2,49.6,56,49.4,55.7,49.3"/>
		<path class="st0" d="M55.7,65.3l-8.1-2.1c-0.6-0.1-1.1-0.7-1.1-1.3v-1.4H9.7V62c0,0.6-0.4,1.2-1.1,1.3l-8.1,2.1
			C0.2,65.4,0,65.6,0,66v0.5C0,66.8,0.2,67,0.5,67h55.1c0.3,0,0.5-0.2,0.5-0.5V66C56.2,65.6,56,65.4,55.7,65.3"/>
		<path class="st0" d="M81.8,39.5H105v-2.6c0-0.6-0.5-1.1-1.1-1.1H84.8V1.1c0-0.6-0.5-1.1-1.1-1.1h-3.1v38.3
			C80.6,39,81.1,39.5,81.8,39.5"/>
		<path class="st0" d="M119.1,26.9l7.4-20.8l7.3,20.8C133.9,26.9,119.1,26.9,119.1,26.9z M127.5,0h-2c-0.5,0-0.9,0.3-1.1,0.7
			l-14.3,38.7h3.7c0.5,0,0.9-0.3,1.1-0.7l2.9-8.2h17.2l2.9,8.2c0.2,0.5,0.6,0.7,1.1,0.7h3.7L128.6,0.7C128.4,0.3,128,0,127.5,0"/>
		<path class="st0" d="M154,3.8h10.1c2.6,0,4.6,0.7,6.1,2s2.2,3.3,2.2,5.8s-0.7,4.5-2.2,5.8c-1.5,1.4-3.5,2-6.1,2H154V3.8z
			 M154,38.3V23.2h10.5c3.6,0,6.5-1.1,8.8-3.2s3.4-4.9,3.4-8.5s-1.1-6.3-3.4-8.4c-2.3-2.1-5.2-3.2-8.8-3.2h-13.6
			c-0.6,0-1.1,0.5-1.1,1.1v38.3h3.1C153.5,39.5,154,39,154,38.3"/>
		<path class="st0" d="M203.5,17.4c-1.5,1.4-3.5,2-6.1,2h-10.1V3.8h10.1c2.6,0,4.6,0.7,6.1,2s2.2,3.3,2.2,5.8S205,16.1,203.5,17.4
			 M210,11.6c0-3.5-1.1-6.3-3.4-8.4S201.4,0,197.8,0h-13.6c-0.6,0-1.1,0.5-1.1,1.1v38.3h3.1c0.6,0,1.1-0.5,1.1-1.1V23.2h10.5
			c3.6,0,6.5-1.1,8.8-3.2C208.8,17.9,210,15.1,210,11.6"/>
		<path class="st0" d="M81.9,51.4h-1.2v15.2c0,0.2,0.2,0.5,0.5,0.5h1.2V51.8C82.3,51.6,82.1,51.4,81.9,51.4"/>
		<path class="st0" d="M97.3,51.8v12.1l-8.2-12.3c-0.1-0.1-0.2-0.2-0.4-0.2h-0.9c-0.2,0-0.5,0.2-0.5,0.5V67h1.2
			c0.2,0,0.5-0.2,0.5-0.5V54.5l8.2,12.3c0.1,0.1,0.2,0.2,0.4,0.2h0.9c0.2,0,0.5-0.2,0.5-0.5V51.4h-1.2
			C97.5,51.4,97.3,51.6,97.3,51.8"/>
		<path class="st0" d="M112.3,59.6c-0.3-0.3-0.7-0.6-1.1-0.7c-0.4-0.2-1-0.3-1.7-0.4l-1.8-0.3c-0.9-0.1-1.6-0.4-2-0.8
			c-0.5-0.4-0.7-1-0.7-1.8c0-0.9,0.3-1.6,0.9-2.1c0.6-0.5,1.4-0.8,2.4-0.8c1.3,0,2.4,0.4,3.3,1.1c0.2,0.1,0.4,0.1,0.6,0l0.8-0.8
			c-0.7-0.6-1.4-1-2.1-1.3c-0.7-0.3-1.6-0.4-2.6-0.4c-1.5,0-2.8,0.4-3.7,1.2c-0.9,0.8-1.4,1.9-1.4,3.2c0,1.2,0.4,2.2,1.2,2.9
			c0.7,0.6,1.6,1,2.9,1.2l1.8,0.3c1,0.1,1.6,0.4,2,0.8c0.5,0.5,0.8,1.1,0.8,2c0,0.9-0.3,1.6-1,2.1c-0.7,0.5-1.6,0.8-2.7,0.8
			c-0.9,0-1.7-0.1-2.3-0.4c-0.5-0.2-1.1-0.6-1.6-1c-0.2-0.2-0.5-0.2-0.6,0l-0.8,0.8c0.7,0.7,1.5,1.3,2.3,1.6c0.8,0.3,1.8,0.5,3,0.5
			c1.6,0,2.9-0.4,3.9-1.2c1-0.8,1.5-1.9,1.5-3.2C113.6,61.4,113.2,60.4,112.3,59.6"/>
		<path class="st0" d="M126.5,51.8v9.9c0,1.2-0.3,2.1-1,2.9c-0.7,0.7-1.6,1.1-2.8,1.1c-1.1,0-2.1-0.4-2.7-1.1c-0.7-0.7-1-1.7-1-2.9
			v-9.9c0-0.2-0.2-0.5-0.5-0.5h-1.2v10.5c0,1.6,0.5,2.8,1.5,3.8c1,1,2.3,1.5,3.9,1.5c1.6,0,2.9-0.5,3.9-1.5c1-1,1.5-2.3,1.5-3.8
			V51.3h-1.2C126.6,51.3,126.4,51.5,126.5,51.8"/>
		<path class="st0" d="M142.1,65.5h-7.6V51.8c0-0.2-0.2-0.5-0.5-0.5h-1.2v15.2c0,0.2,0.2,0.5,0.5,0.5h9.2v-1
			C142.5,65.7,142.3,65.5,142.1,65.5"/>
		<path class="st0" d="M148.2,62l2.9-8.3L154,62H148.2L148.2,62z M151.5,51.4h-0.8c-0.2,0-0.4,0.1-0.4,0.3L144.6,67h1.5
			c0.2,0,0.4-0.1,0.4-0.3l1.2-3.2h6.8l1.1,3.2c0.1,0.2,0.2,0.3,0.4,0.3h1.5l-5.6-15.4C151.9,51.5,151.7,51.4,151.5,51.4"/>
		<path class="st0" d="M157.8,52.4c0,0.2,0.2,0.5,0.5,0.5h4.1V67h1.2c0.2,0,0.5-0.2,0.5-0.5V52.9h4.1c0.2,0,0.5-0.2,0.5-0.5v-1
			h-10.7L157.8,52.4L157.8,52.4z"/>
		<path class="st0" d="M179.8,62.8c-0.1,0.7-0.4,1.3-0.9,1.8c-0.7,0.7-1.6,1.1-2.7,1.1s-2-0.4-2.7-1.1c-0.5-0.5-0.8-1.1-0.9-1.8
			s-0.2-1.9-0.2-3.6s0.1-2.9,0.2-3.6c0.1-0.7,0.4-1.3,0.9-1.8c0.7-0.7,1.6-1.1,2.7-1.1s2,0.4,2.7,1.1c0.5,0.5,0.8,1.1,0.9,1.8
			c0.1,0.7,0.2,1.9,0.2,3.6S179.9,62.1,179.8,62.8 M180.1,52.8c-1-1-2.3-1.5-3.9-1.5c-1.6,0-2.9,0.5-3.9,1.5
			c-0.7,0.7-1.1,1.4-1.3,2.3c-0.2,0.8-0.3,2.2-0.3,4.2c0,2,0.1,3.3,0.3,4.2c0.2,0.8,0.6,1.6,1.3,2.3c1,1,2.3,1.5,3.9,1.5
			s2.9-0.5,3.9-1.5c0.7-0.7,1.1-1.5,1.3-2.3c0.2-0.8,0.3-2.2,0.3-4.1c0-1.9-0.1-3.3-0.3-4.1C181.2,54.3,180.8,53.5,180.1,52.8"/>
		<path class="st0" d="M187.5,58.6v-5.7h4.2c0.9,0,1.7,0.2,2.3,0.7c0.6,0.5,0.9,1.2,0.9,2.1c0,0.9-0.3,1.6-0.8,2.1s-1.3,0.7-2.3,0.7
			H187.5L187.5,58.6z M195.6,58.5c0.6-0.7,0.9-1.7,0.9-2.8c0-1.3-0.4-2.4-1.3-3.2s-2-1.2-3.4-1.2h-5.6c-0.2,0-0.5,0.2-0.5,0.5V67
			h1.2c0.2,0,0.5-0.2,0.5-0.5v-6.5h3.8l3.4,6.7c0.1,0.1,0.2,0.2,0.4,0.2h1.7l-3.7-7.1C194.1,59.7,195,59.2,195.6,58.5"/>
		<path class="st0" d="M208.7,59.6c-0.3-0.3-0.7-0.6-1.1-0.7c-0.4-0.2-1-0.3-1.7-0.4l-1.8-0.3c-0.9-0.1-1.6-0.4-2-0.8
			c-0.5-0.4-0.7-1-0.7-1.8c0-0.9,0.3-1.6,0.9-2.1c0.6-0.5,1.4-0.8,2.4-0.8c1.3,0,2.4,0.4,3.3,1.1c0.2,0.1,0.4,0.1,0.6,0l0.8-0.8
			c-0.7-0.6-1.4-1-2.1-1.3c-0.7-0.3-1.6-0.4-2.6-0.4c-1.5,0-2.8,0.4-3.7,1.2c-0.9,0.8-1.4,1.9-1.4,3.2c0,1.2,0.4,2.2,1.2,2.9
			c0.7,0.6,1.6,1,2.9,1.2l1.8,0.3c1,0.1,1.6,0.4,2,0.8c0.5,0.5,0.8,1.1,0.8,2c0,0.9-0.3,1.6-1,2.1c-0.7,0.5-1.6,0.8-2.7,0.8
			c-0.9,0-1.7-0.1-2.3-0.4c-0.5-0.2-1.1-0.6-1.6-1c-0.2-0.2-0.5-0.2-0.6,0l-0.8,0.8c0.7,0.7,1.5,1.3,2.3,1.6c0.8,0.3,1.8,0.5,3,0.5
			c1.6,0,2.9-0.4,3.9-1.2c1-0.8,1.5-1.9,1.5-3.2C210,61.4,209.6,60.4,208.7,59.6"/>
	</g>
</g>
</svg>
